<svg xmlns="http://www.w3.org/2000/svg" width="512" height="512" viewBox="0 0 512 512">
  <defs>
    <linearGradient id="bg4" x1="0%" y1="0%" x2="100%" y2="100%">
      <stop offset="0%" style="stop-color:#111827"/>
      <stop offset="100%" style="stop-color:#1f2937"/>
    </linearGradient>
    <linearGradient id="shield" x1="0%" y1="0%" x2="0%" y2="100%">
      <stop offset="0%" style="stop-color:#a855f7"/>
      <stop offset="50%" style="stop-color:#7c3aed"/>
      <stop offset="100%" style="stop-color:#6d28d9"/>
    </linearGradient>
  </defs>
  <!-- Background -->
  <rect width="512" height="512" rx="128" fill="url(#bg4)"/>
  <!-- Shield -->
  <path d="M 256 80 L 380 140 L 380 280 Q 380 380 256 430 Q 132 380 132 280 L 132 140 Z" fill="url(#shield)" opacity="0.9"/>
  <path d="M 256 100 L 360 152 L 360 276 Q 360 364 256 410 Q 152 364 152 276 L 152 152 Z" fill="none" stroke="white" stroke-width="3" opacity="0.3"/>
  <!-- Lightning bolt -->
  <polygon points="280,160 240,260 272,260 232,370 300,240 268,240 300,160" fill="#22c55e"/>
  <!-- Text -->
  <text x="256" y="480" text-anchor="middle" font-family="Arial,Helvetica,sans-serif" font-weight="900" font-size="44" fill="white" letter-spacing="3">AUTOBAGS</text>
</svg>
