<svg xmlns="http://www.w3.org/2000/svg" width="512" height="512" viewBox="0 0 512 512">
  <defs>
    <linearGradient id="bag7" x1="30%" y1="0%" x2="70%" y2="100%">
      <stop offset="0%" style="stop-color:#4ade80"/>
      <stop offset="50%" style="stop-color:#22c55e"/>
      <stop offset="100%" style="stop-color:#15803d"/>
    </linearGradient>
    <radialGradient id="shine7" cx="35%" cy="30%" r="50%">
      <stop offset="0%" style="stop-color:#86efac; stop-opacity:0.4"/>
      <stop offset="100%" style="stop-color:#22c55e; stop-opacity:0"/>
    </radialGradient>
  </defs>
  <!-- Black background -->
  <rect width="512" height="512" rx="112" fill="#0a0a0f"/>
  <!-- Subtle glow -->
  <ellipse cx="256" cy="300" rx="160" ry="140" fill="#22c55e" opacity="0.05"/>
  <!-- Shopping bag - glossy like Bags.fm -->
  <path d="M 155 200 L 143 398 Q 143 428 173 428 L 339 428 Q 369 428 369 398 L 357 200 Z" fill="url(#bag7)"/>
  <path d="M 155 200 L 143 398 Q 143 428 173 428 L 339 428 Q 369 428 369 398 L 357 200 Z" fill="url(#shine7)"/>
  <!-- Handle -->
  <path d="M 207 200 Q 207 125 256 125 Q 305 125 305 200" fill="none" stroke="#15803d" stroke-width="16" stroke-linecap="round"/>
  <path d="M 207 200 Q 207 132 256 132 Q 305 132 305 200" fill="none" stroke="#4ade80" stroke-width="8" stroke-linecap="round"/>
  <!-- Lightning bolt (speed/auto) -->
  <polygon points="276,240 238,310 265,310 235,400 295,295 268,295 296,240" fill="#0a0a0f" opacity="0.6"/>
  <!-- Text -->
  <text x="256" y="490" text-anchor="middle" font-family="Arial,Helvetica,sans-serif" font-weight="900" font-size="42" fill="#4ade80" letter-spacing="4">AUTOBAGS</text>
</svg>
